<?xml version="1.0" encoding="utf-8"?>
<!-- Generator: Adobe Illustrator 25.2.1, SVG Export Plug-In . SVG Version: 6.00 Build 0)  -->
<svg version="1.1" id="Camada_1" xmlns="http://www.w3.org/2000/svg" xmlns:xlink="http://www.w3.org/1999/xlink" x="0px" y="0px"
	 viewBox="0 0 512 512" style="enable-background:new 0 0 512 512;" xml:space="preserve">
<style type="text/css">
	.st0{fill:#00A1E0;}
</style>
<desc>Created with Sketch.</desc>
<g id="Page-1">
	<g id="_x30_14---Study" transform="translate(-1.000000, 0.000000)">
		<path id="Shape" class="st0" d="M13.6,319.1c2.8,1.9,5.8,3.7,8.9,5.1c3.7,1.9,9.9,5,10.3,7.3c0.5,2.9,0.2,5.9-1,8.6
			c-1.3,2.7-2.6,5.1-3.8,7.1c-3.1,5.5-8.4,14.8-0.5,21.2c1.8,1.7,5,4.2,7.9,6.4c-2.1,3.7-3.1,8-2.8,12.3c0.5,3.4,2.3,6.4,5.1,8.4
			c1.9,1.3,3.9,2.5,5.9,3.6c5,2.9,7,4.2,7.7,6.9c0.5,3.4,0.2,6.9-0.9,10.2c-0.5,2.3-1,4.6-1.3,6.8c-0.8,7.8,0.1,15.6,2.8,23
			c3.8,13.6,16.1,23,30.2,23.3c2.4,0,4.7-0.3,7-0.7c24.4-5.8,48.4-13,71.9-21.5c19.2,11.3,31.4,45.6,34.5,58.5
			c0.9,3.8,4.4,6.5,8.3,6.5l214.2-0.6c2.7,0,5.3-1.3,6.9-3.5c1.6-2.2,2.1-5,1.3-7.6c-2.1-5.8-5-11.2-8.7-16.2c-2-2.9-3.9-6-5.5-9.2
			c-3.9-7.8-7.1-16-9.6-24.3c-4.9-16.5-8.2-33.4-10.1-50.5c-3-25.5,0.8-51.3,11.1-74.8c0.9-2,14.3-28.9,15.5-31.1
			c1.5-2.7,1.5-5.9-0.1-8.5c-1.6-2.6-4.4-4.2-7.4-4.2c-3,0-5.8,1.7-7.3,4.3c-1.4,2.5-15.4,30.8-16.2,32.4
			c-11.6,26.3-15.9,55.2-12.5,83.8c2,18.1,5.6,36.1,10.8,53.5c2.8,9.2,6.3,18.1,10.6,26.7c1.9,3.8,4.2,7.6,6.6,11.1l0.6,0.9
			l-193.6,0.6c-5.7-20.2-15.9-38.9-30-54.5l7.7-2.7c5.7-2,10-3.5,12.2-4.2c36.6-11.6,54.8-28.2,54.3-49.5c0-2.3-0.9-4.4-2.6-6
			c-1.6-1.6-3.8-2.4-6.1-2.3c-4.7,0.1-8.4,4-8.3,8.7c0.2,8.8-7,21.6-42.5,32.8c-2.3,0.7-6.8,2.3-12.7,4.4c-6.3,2.2-14.4,5-23.3,8.1
			h-0.1c-24,8.8-48.5,16.2-73.4,22.2c-8,1.5-15.7-3.5-17.6-11.4c-1.8-4.9-2.5-10.1-2-15.2c0.2-1.8,0.6-3.6,1-5.4
			c1.7-5.9,2-12.1,0.7-18.2c-2.5-7.8-8.2-14.2-15.8-17.5c-0.6-0.3-1.2-0.7-1.8-1c0.9-1.9,2-3.6,3.3-5.3c1.4-1.8,2.1-4.1,1.8-6.4
			c-0.3-2.3-1.5-4.4-3.4-5.7c-2-1.5-6.9-5.1-10.4-8c0.4-0.7,0.9-1.6,1.3-2.3c1.3-2.4,2.9-5.1,4.4-8.2c2.7-6,3.5-12.6,2.3-19.1
			c-2-10.4-12-15.5-19.3-19.2c-2.5-1.2-4.8-2.5-7-4.1c-1.8-1.2-3.5-2.6-5.1-4.1c0-1.3,1.4-4.4,7.9-12.3
			C41.2,268.8,54.3,247.5,65,225c2-3.5,3.1-7.5,3.3-11.5c-0.9-8.6-5.4-16.4-12.5-21.3c-3.4-3.2-6.7-6.2-7.1-8.9c0.1-2,0.5-4,1.3-5.9
			c1.4-3.7,3-7.2,4.6-10.8c3.5-7.2,6.3-14.8,8.4-22.5l0.9-3.6c1.8-8.5,4.1-16.9,7-25.2c6.7-18.6,17.1-35.6,30.6-50
			c9.2-9.3,20-16.9,31.9-22.3c2.8-1.3,4.6-4,4.9-7c0.2-3-1.1-6-3.7-7.7c-2.5-1.7-5.8-2-8.5-0.7c-13.8,6.3-26.3,15.1-36.9,26
			C74,69.6,62.4,88.6,54.9,109.3c-3.1,8.9-5.6,18-7.6,27.2l-0.9,3.6c-1.8,6.7-4.3,13.2-7.3,19.5c-1.7,3.9-3.5,7.8-5,11.8
			c-1.9,4.5-2.7,9.4-2.2,14.3c1.7,7.6,6.1,14.4,12.4,19.1c4.2,3.8,6.9,6.5,6.9,8.9c-0.3,1.3-0.8,2.5-1.5,3.7
			c-10.2,21.5-22.7,41.9-37.4,60.7c-6.2,7.5-12.6,16.3-11.3,25.1C3,309.9,7.4,315.6,13.6,319.1z"/>
		<path id="Shape_1_" class="st0" d="M96.3,151.8l0.9-3.7c1.5-7.1,3.4-14.2,5.8-21.1c5.1-14.3,13.1-27.3,23.5-38.4
			c2.3-2.5,4.9-4.7,7.6-6.7c3.8-2.7,4.7-8.1,2-11.9c-2.7-3.8-8.1-4.7-11.9-2c-3.6,2.6-7,5.6-10.1,8.8
			c-11.9,12.8-21.2,27.8-27.1,44.3c-2.6,7.6-4.7,15.3-6.4,23.1l-0.9,3.8c-0.7,3,0.2,6.1,2.5,8.2c2.2,2.1,5.4,2.8,8.4,1.9
			C93.4,157.2,95.6,154.8,96.3,151.8L96.3,151.8z"/>
		<circle id="Oval" class="st0" cx="77.8" cy="179.2" r="8.5"/>
		<path id="Shape_2_" class="st0" d="M513,248V42.2c0-9.1-7.4-16.5-16.5-16.6h-17.7v-9.1c0.1-9-7.1-16.4-16.1-16.5h-98.6
			c-12,0.1-23.2,5.8-30.3,15.4c-1.1-1.4-2.2-2.8-3.4-4c-0.5-0.5-1.1-1-1.7-1.4c-6.9-6.3-15.9-9.9-25.2-10h-98.6
			c-9,0.1-16.2,7.5-16.1,16.5v9.1h-17.7c-9.1,0-16.5,7.4-16.5,16.6V248c0,9.1,7.4,16.5,16.5,16.6l120.1-0.6v9.6
			c0,9.1,7.4,16.5,16.5,16.6H360c9.1,0,16.5-7.4,16.5-16.6l-0.6-9h120.7C505.6,264.5,513,257.1,513,248z M364.1,17.1h97.7v153.6
			h-97.7c-7.9,0-15.5,2.6-21.8,7.4V40.3C342,27.9,351.7,17.5,364.1,17.1z M205.8,187.7h97.7c13,1.1,22.8,12.5,21.8,25.6H205.8V187.7
			z M461.8,187.7l-0.1,25.6H342.3c-0.9-13.1,8.8-24.5,21.8-25.6H461.8z M205.8,17.1h97.7c12.4,0.4,22.2,10.8,21.8,23.3V178
			c-6.3-4.8-13.9-7.3-21.8-7.4h-97.7V17.1z M364.2,252.3c-3.1,3.1-4.8,7.3-4.8,11.7l0.6,9.1l-51.7,0.5v-9.6
			c0-9.1-7.4-16.5-16.5-16.5L171.7,248l-0.6-205.3h17.7v170.7c-0.2,9.2,7,16.8,16.1,17.1h120.4c0,0.1,0.1,0.2,0.1,0.4
			c0,0.1-0.1,0.3-0.1,0.4v15.9c0,4.7,3.8,8.5,8.5,8.5s8.5-3.8,8.5-8.5v-15.9c0-0.1-0.1-0.3-0.1-0.4s0.1-0.2,0.1-0.4h120.4
			c9.2-0.3,16.4-7.9,16.1-17.1V42.5l17.1-0.3l0.6,205.3H375.9C371.5,247.5,367.3,249.2,364.2,252.3z"/>
		<path id="Shape_3_" class="st0" d="M231.4,59.7h68.3c4.7,0,8.5-3.8,8.5-8.5s-3.8-8.5-8.5-8.5h-68.3c-4.7,0-8.5,3.8-8.5,8.5
			S226.7,59.7,231.4,59.7z"/>
		<path id="Shape_4_" class="st0" d="M231.4,102.4h68.3c4.7,0,8.5-3.8,8.5-8.5c0-4.7-3.8-8.5-8.5-8.5h-68.3c-4.7,0-8.5,3.8-8.5,8.5
			C222.9,98.6,226.7,102.4,231.4,102.4z"/>
		<path id="Shape_5_" class="st0" d="M231.4,145.1h68.3c4.7,0,8.5-3.8,8.5-8.5s-3.8-8.5-8.5-8.5h-68.3c-4.7,0-8.5,3.8-8.5,8.5
			S226.7,145.1,231.4,145.1z"/>
		<path id="Shape_6_" class="st0" d="M367.9,59.7h68.3c4.7,0,8.5-3.8,8.5-8.5s-3.8-8.5-8.5-8.5h-68.3c-4.7,0-8.5,3.8-8.5,8.5
			S363.2,59.7,367.9,59.7z"/>
		<path id="Shape_7_" class="st0" d="M367.9,102.4h68.3c4.7,0,8.5-3.8,8.5-8.5c0-4.7-3.8-8.5-8.5-8.5h-68.3c-4.7,0-8.5,3.8-8.5,8.5
			C359.4,98.6,363.2,102.4,367.9,102.4z"/>
		<path id="Shape_8_" class="st0" d="M367.9,145.1h68.3c4.7,0,8.5-3.8,8.5-8.5s-3.8-8.5-8.5-8.5h-68.3c-4.7,0-8.5,3.8-8.5,8.5
			S363.2,145.1,367.9,145.1z"/>
	</g>
</g>
</svg>
