<?xml version="1.0" encoding="utf-8"?>
<!-- Generator: Adobe Illustrator 25.2.1, SVG Export Plug-In . SVG Version: 6.00 Build 0)  -->
<svg version="1.1" id="Capa_1" xmlns="http://www.w3.org/2000/svg" xmlns:xlink="http://www.w3.org/1999/xlink" x="0px" y="0px"
	 viewBox="0 0 512 512" style="enable-background:new 0 0 512 512;" xml:space="preserve">
<style type="text/css">
	.st0{fill:#00A1E0;}
</style>
<g>
	<g>
		<path class="st0" d="M299.1,203.8h-89.4c-4.1,0-7.5,3.4-7.5,7.5v89.4c0,4.1,3.4,7.5,7.5,7.5h89.4c4.1,0,7.5-3.4,7.5-7.5v-89.4
			C306.6,207.1,303.2,203.8,299.1,203.8z M291.6,293.2h-74.4v-74.4h74.4V293.2z"/>
	</g>
</g>
<g>
	<g>
		<path class="st0" d="M299.1,396h-89.4c-4.1,0-7.5,3.4-7.5,7.5v33.7c0,4.1,3.4,7.5,7.5,7.5s7.5-3.4,7.5-7.5V411h74.4v74.4h-74.4
			v-18c0-4.1-3.4-7.5-7.5-7.5s-7.5,3.4-7.5,7.5V493c0,4.1,3.4,7.5,7.5,7.5h89.4c4.1,0,7.5-3.4,7.5-7.5v-89.4
			C306.6,399.4,303.2,396,299.1,396z"/>
	</g>
</g>
<g>
	<g>
		<path class="st0" d="M317.9,27c-2.9-2.9-7.7-2.9-10.6,0l-0.8,0.8v-3.7c0-4.1-3.4-7.5-7.5-7.5h-89.4c-4.1,0-7.5,3.4-7.5,7.5v89.4
			c0,4.1,3.4,7.5,7.5,7.5h18.9c4.1,0,7.5-3.4,7.5-7.5s-3.4-7.5-7.5-7.5h-11.4V31.6h74.4v11.2l-29.4,29.4l-12-12
			c-2.9-2.9-7.7-2.9-10.6,0c-2.9,2.9-2.9,7.7,0,10.6l17.3,17.3c1.5,1.5,3.4,2.2,5.3,2.2s3.8-0.7,5.3-2.2L291.6,64V106h-32.7
			c-4.1,0-7.5,3.4-7.5,7.5s3.4,7.5,7.5,7.5h40.2c4.1,0,7.5-3.4,7.5-7.5V49l11.4-11.4C320.9,34.7,320.9,29.9,317.9,27z"/>
	</g>
</g>
<g>
	<g>
		<path class="st0" d="M121.4,279.2c-13.8-9.4-31.7-9.4-45.6,0c-3.4,2.3-4.3,7-2,10.4c1.5,2.1,3.8,3.3,6.2,3.3
			c1.5,0,2.9-0.4,4.2-1.3c8.9-6,19.9-6,28.7,0c3.4,2.3,8.1,1.4,10.4-2C125.7,286.2,124.8,281.6,121.4,279.2z"/>
	</g>
</g>
<g>
	<g>
		<path class="st0" d="M152.1,212.8c-9.7-12-23.3-20.5-38.3-23.9c-4-0.9-8.1,1.6-9,5.7c-0.9,4,1.6,8.1,5.7,9
			c24.7,5.6,41.9,27.2,41.9,52.5c0,29.7-24.1,53.8-53.8,53.8S44.8,285.7,44.8,256c0-23.9,16.1-45.2,39.1-51.8c4-1.1,6.3-5.3,5.2-9.3
			c-1.1-4-5.3-6.3-9.3-5.2c-29.4,8.4-50,35.6-50,66.2c0,37.9,30.9,68.8,68.8,68.8s68.8-30.9,68.8-68.8
			C167.4,240.3,162,224.9,152.1,212.8z"/>
	</g>
</g>
<g>
	<g>
		<path class="st0" d="M80,237.2c-4.1,0-7.5,3.4-7.5,7.5v1.9c0,4.1,3.4,7.5,7.5,7.5s7.5-3.4,7.5-7.5v-1.9
			C87.5,240.6,84.2,237.2,80,237.2z"/>
	</g>
</g>
<g>
	<g>
		<path class="st0" d="M117,237.2c-4.1,0-7.5,3.4-7.5,7.5v1.9c0,4.1,3.4,7.5,7.5,7.5s7.5-3.4,7.5-7.5v-1.9
			C124.5,240.6,121.1,237.2,117,237.2z"/>
	</g>
</g>
<g>
	<g>
		<path class="st0" d="M121.3,88.2c-2.3-3.4-7-4.3-10.4-2c-8.9,6-19.9,6-28.7,0c-3.4-2.3-8.1-1.4-10.4,2c-2.3,3.4-1.4,8.1,2,10.4
			c6.9,4.7,14.9,7.1,22.8,7.1c7.9,0,15.9-2.4,22.8-7.1C122.8,96.3,123.7,91.7,121.3,88.2z"/>
	</g>
</g>
<g>
	<g>
		<path class="st0" d="M96.6,0C58.6,0,27.7,30.9,27.7,68.8s30.9,68.8,68.8,68.8s68.8-30.9,68.8-68.8S134.5,0,96.6,0z M96.6,122.6
			c-29.7,0-53.8-24.1-53.8-53.8S66.9,15,96.6,15s53.8,24.1,53.8,53.8S126.2,122.6,96.6,122.6z"/>
	</g>
</g>
<g>
	<g>
		<path class="st0" d="M78,50c-4.1,0-7.5,3.4-7.5,7.5v1.9c0,4.1,3.4,7.5,7.5,7.5s7.5-3.4,7.5-7.5v-1.9C85.5,53.4,82.1,50,78,50z"/>
	</g>
</g>
<g>
	<g>
		<path class="st0" d="M115,50c-4.1,0-7.5,3.4-7.5,7.5v1.9c0,4.1,3.4,7.5,7.5,7.5s7.5-3.4,7.5-7.5v-1.9C122.5,53.4,119.1,50,115,50z
			"/>
	</g>
</g>
<g>
	<g>
		<path class="st0" d="M98.6,374.4c-37.9,0-68.8,30.9-68.8,68.8S60.6,512,98.6,512s68.8-30.9,68.8-68.8S136.5,374.4,98.6,374.4z
			 M98.6,497c-29.7,0-53.8-24.1-53.8-53.8s24.1-53.8,53.8-53.8s53.8,24.1,53.8,53.8S128.3,497,98.6,497z"/>
	</g>
</g>
<g>
	<g>
		<path class="st0" d="M80,424.4c-4.1,0-7.5,3.4-7.5,7.5v1.9c0,4.1,3.4,7.5,7.5,7.5s7.5-3.4,7.5-7.5v-1.9
			C87.5,427.7,84.2,424.4,80,424.4z"/>
	</g>
</g>
<g>
	<g>
		<path class="st0" d="M117,424.4c-4.1,0-7.5,3.4-7.5,7.5v1.9c0,4.1,3.4,7.5,7.5,7.5s7.5-3.4,7.5-7.5v-1.9
			C124.5,427.7,121.1,424.4,117,424.4z"/>
	</g>
</g>
<g>
	<g>
		<path class="st0" d="M117,461.8H80c-4.1,0-7.5,3.4-7.5,7.5s3.4,7.5,7.5,7.5h37c4.1,0,7.5-3.4,7.5-7.5S121.1,461.8,117,461.8z"/>
	</g>
</g>
<g>
	<g>
		<path class="st0" d="M396.4,22.3h-27.2c-4.1,0-7.5,3.4-7.5,7.5s3.4,7.5,7.5,7.5h27.2c4.1,0,7.5-3.4,7.5-7.5S400.5,22.3,396.4,22.3
			z"/>
	</g>
</g>
<g>
	<g>
		<path class="st0" d="M476.8,55.2H369.2c-4.1,0-7.5,3.4-7.5,7.5s3.4,7.5,7.5,7.5h107.6c4.1,0,7.5-3.4,7.5-7.5
			S480.9,55.2,476.8,55.2z"/>
	</g>
</g>
<g>
	<g>
		<path class="st0" d="M476.8,77.8H369.2c-4.1,0-7.5,3.4-7.5,7.5s3.4,7.5,7.5,7.5h107.6c4.1,0,7.5-3.4,7.5-7.5
			S480.9,77.8,476.8,77.8z"/>
	</g>
</g>
<g>
	<g>
		<path class="st0" d="M476.8,100.3H369.2c-4.1,0-7.5,3.4-7.5,7.5s3.4,7.5,7.5,7.5h107.6c4.1,0,7.5-3.4,7.5-7.5
			S480.9,100.3,476.8,100.3z"/>
	</g>
</g>
<g>
	<g>
		<path class="st0" d="M396.4,209.5h-27.2c-4.1,0-7.5,3.4-7.5,7.5s3.4,7.5,7.5,7.5h27.2c4.1,0,7.5-3.4,7.5-7.5
			S400.5,209.5,396.4,209.5z"/>
	</g>
</g>
<g>
	<g>
		<path class="st0" d="M476.8,242.4H369.2c-4.1,0-7.5,3.4-7.5,7.5s3.4,7.5,7.5,7.5h107.6c4.1,0,7.5-3.4,7.5-7.5
			S480.9,242.4,476.8,242.4z"/>
	</g>
</g>
<g>
	<g>
		<path class="st0" d="M476.8,265H369.2c-4.1,0-7.5,3.4-7.5,7.5s3.4,7.5,7.5,7.5h107.6c4.1,0,7.5-3.4,7.5-7.5S480.9,265,476.8,265z"
			/>
	</g>
</g>
<g>
	<g>
		<path class="st0" d="M476.8,287.5H369.2c-4.1,0-7.5,3.4-7.5,7.5s3.4,7.5,7.5,7.5h107.6c4.1,0,7.5-3.4,7.5-7.5
			S480.9,287.5,476.8,287.5z"/>
	</g>
</g>
<g>
	<g>
		<path class="st0" d="M396.4,401.7h-27.2c-4.1,0-7.5,3.4-7.5,7.5s3.4,7.5,7.5,7.5h27.2c4.1,0,7.5-3.4,7.5-7.5
			S400.5,401.7,396.4,401.7z"/>
	</g>
</g>
<g>
	<g>
		<path class="st0" d="M476.8,434.6H369.2c-4.1,0-7.5,3.4-7.5,7.5s3.4,7.5,7.5,7.5h107.6c4.1,0,7.5-3.4,7.5-7.5
			S480.9,434.6,476.8,434.6z"/>
	</g>
</g>
<g>
	<g>
		<path class="st0" d="M476.8,457.2H369.2c-4.1,0-7.5,3.4-7.5,7.5s3.4,7.5,7.5,7.5h107.6c4.1,0,7.5-3.4,7.5-7.5
			S480.9,457.2,476.8,457.2z"/>
	</g>
</g>
<g>
	<g>
		<path class="st0" d="M476.8,479.8H369.2c-4.1,0-7.5,3.4-7.5,7.5s3.4,7.5,7.5,7.5h107.6c4.1,0,7.5-3.4,7.5-7.5
			S480.9,479.8,476.8,479.8z"/>
	</g>
</g>
</svg>
