<?xml version="1.0" encoding="utf-8"?>
<!-- Generator: Adobe Illustrator 25.2.1, SVG Export Plug-In . SVG Version: 6.00 Build 0)  -->
<svg version="1.1" id="Capa_1" xmlns="http://www.w3.org/2000/svg" xmlns:xlink="http://www.w3.org/1999/xlink" x="0px" y="0px"
	 viewBox="0 0 504.2 504.2" style="enable-background:new 0 0 504.2 504.2;" xml:space="preserve">
<style type="text/css">
	.st0{fill:#00A1E0;}
</style>
<g>
	<g>
		<g>
			<path class="st0" d="M344.1,268.9c-4.6,0-8.4,3.8-8.4,8.4v201.4c0,4.6-3.8,8.4-8.4,8.4H25.2c-4.6,0-8.4-3.8-8.4-8.4V25.5
				c0-4.6,3.8-8.4,8.4-8.4h302.2c4.6,0,8.4,3.8,8.4,8.4v50.4c0,4.6,3.8,8.4,8.4,8.4s8.4-3.8,8.4-8.4V25.5
				c0-13.9-11.3-25.2-25.2-25.2H25.2C11.3,0.3,0,11.6,0,25.5v453.2c0,13.9,11.3,25.2,25.2,25.2h302.2c13.9,0,25.2-11.3,25.2-25.2
				V277.3C352.5,272.6,348.8,268.9,344.1,268.9z"/>
			<path class="st0" d="M491.9,28.8c-16.3-16.3-42.8-16.4-59.2-0.1l0,0l-55.3,55.3l-289,289c-0.1,0.1-0.1,0.2-0.2,0.3
				c-0.7,0.7-1.2,1.5-1.6,2.4l-0.1,0.1L51,458.6c-1.1,2.6-0.8,5.6,0.7,7.9s4.2,3.8,7,3.8c1.1,0,2.3-0.2,3.3-0.7l82.9-35.5l0.1-0.1
				c0.9-0.4,1.7-0.9,2.4-1.6c0.1-0.1,0.2-0.1,0.3-0.2l289-289L492,88C508.3,71.6,508.2,45.1,491.9,28.8z M74.7,446l22.5-52.4
				l29.9,29.9L74.7,446z M141.8,414.4l-35.6-35.6l277.1-277.1l35.6,35.6L141.8,414.4z M430.8,125.5l-35.6-35.6l13.7-13.7l35.6,35.6
				L430.8,125.5z M480.1,76.2L480.1,76.2l-23.8,23.7l-35.6-35.6l23.7-23.7c6.4-6.4,15.6-8.8,24.3-6.5c8.7,2.3,15.5,9.1,17.8,17.8
				C489,60.5,486.5,69.8,480.1,76.2z"/>
			<path class="st0" d="M277,75.8H75.5c-4.6,0-8.4,3.8-8.4,8.4s3.8,8.4,8.4,8.4H277c4.6,0,8.4-3.8,8.4-8.4S281.6,75.8,277,75.8z"/>
			<path class="st0" d="M285.4,134.6c0-4.6-3.8-8.4-8.4-8.4H75.5c-4.6,0-8.4,3.8-8.4,8.4s3.8,8.4,8.4,8.4H277
				C281.6,143,285.4,139.2,285.4,134.6z"/>
			<path class="st0" d="M75.5,176.5c-4.6,0-8.4,3.8-8.4,8.4s3.8,8.4,8.4,8.4h151.1c4.6,0,8.4-3.8,8.4-8.4s-3.8-8.4-8.4-8.4H75.5z"/>
		</g>
	</g>
</g>
</svg>
