<?xml version="1.0" encoding="utf-8"?>
<!-- Generator: Adobe Illustrator 25.2.1, SVG Export Plug-In . SVG Version: 6.00 Build 0)  -->
<svg version="1.1" id="Capa_1" xmlns="http://www.w3.org/2000/svg" xmlns:xlink="http://www.w3.org/1999/xlink" x="0px" y="0px"
	 viewBox="0 0 479.6 479.6" style="enable-background:new 0 0 479.6 479.6;" xml:space="preserve">
<style type="text/css">
	.st0{fill:#00A1E0;}
</style>
<g>
	<g>
		<path class="st0" d="M223.6,315.7c-4.4,0-8,3.6-8,8s3.6,8,8,8c13.3,0,24,10.7,24,24c0,4.4,3.6,8,8,8c4.4,0,8-3.6,8-8
			C263.5,333.6,245.6,315.8,223.6,315.7z"/>
	</g>
</g>
<g>
	<g>
		<path class="st0" d="M477.2,102.2C477.2,102.2,477.2,102.2,477.2,102.2L381,6.1c-3.2-3-8.1-3-11.3,0l-45.3,45.3
			c-3.1,3.1-3.1,8.2,0,11.3l5.7,5.7l-3.9,3.9c-18.2,3.4-34.9,12.2-48,25.3l-24.6,24.6l-13.8-13.8c-16-16-37.7-25-60.3-25h-21.3l-9-9
			l5.7-5.7c3.1-3.1,3.1-8.2,0-11.3l-45.3-45.3c-3.1-3.1-8.2-3.1-11.3,0L2.3,108.3c-3.1,3.1-3.1,8.2,0,11.3l45.2,45.3
			c3.1,3.1,8.2,3.1,11.3,0l5.7-5.7l3.9,3.9c3.4,18.2,12.2,34.9,25.3,48l57.8,57.7v38.9c-0.1,22.6,8.9,44.3,25,60.3l15,15v12.7h-8
			c-4.4,0-8,3.6-8,8v64c0,4.4,3.6,8,8,8h136c4.4,0,8-3.6,8-8v-64c0-4.4-3.6-8-8-8h-8v-5.5c10.5-15.3,16-33.3,16-51.8V290
			c5.2-0.6,10.1-3,13.8-6.7l39.7-39.7c15.9-16,24.9-37.7,25-60.3v-21.2l9-9l5.7,5.7c3.1,3.1,8.2,3.1,11.3,0l45.3-45.3
			C480.3,110.4,480.3,105.4,477.2,102.2z M58.9,142.3l-5.7,5.7L19.3,114l84.8-84.8l33.9,33.9l-5.6,5.6L58.9,142.3z M105.1,199.8
			c-11.4-11.3-18.8-25.9-21.3-41.8c-0.3-1.7-1.1-3.2-2.2-4.4l-5.7-5.7l31.1-31.1l31.1-31.1L149.4,97c1.5,1.5,3.5,2.3,5.7,2.3h24.6
			c18.4-0.1,36,7.2,49,20.3l13.8,13.8l-11.3,11.3L217.3,131c-3.1-3.1-8.2-3.1-11.3,0s-3.1,8.2,0,11.3l13.8,13.8l-31.1,31.1
			c-4.5,4.5-7,10.6-7,16.9c0.1,9.6,5.8,18.2,14.6,22c-3,5.1-4,11.1-2.8,16.8l-24.6-24.6c-3.1-3.2-8.1-3.3-11.3-0.2
			s-3.3,8.1-0.2,11.3c0.1,0.1,0.1,0.1,0.2,0.2l31.3,31.3c1.5,1.5,2.3,3.5,2.3,5.6c0,4.4-3.6,8-8,8c-2.1,0.1-4.1-0.7-5.6-2.3
			L105.1,199.8z M311.5,459.7h-120v-48h120V459.7z M311.5,338.4c0,16-5,31.7-14.5,44.6c-1,1.4-1.5,3-1.5,4.7v8h-88v-16
			c0-2.1-0.8-4.2-2.3-5.7l-17.4-17.4c-13-13-20.3-30.6-20.3-49v-23.1c4.3,3.8,9.8,5.9,15.6,5.9h0.1c13.2-0.1,23.9-10.8,24-24
			c0-2.5-0.5-5-1.3-7.4c3,1.6,6.4,2.5,9.8,2.7c0.7,12.2,10.4,22,22.6,22.7c0.7,12.7,11.1,22.7,23.8,22.8h0.1c6.3,0,12.4-2.5,16.8-7
			l23.7-23.8c1.9,4,4.9,7.5,8.7,9.9L311.5,338.4L311.5,338.4z M392.4,153.2c-1.5,1.5-2.3,3.5-2.3,5.7v24.6c-0.1,18.4-7.3,36-20.3,49
			L330,272c-1.5,1.5-3.5,2.3-5.5,2.3c-4.4,0-8-3.6-8-8c0-2.1,0.8-4.1,2.3-5.6l0,0l39.6-39.6c3.1-3.2,3-8.2-0.2-11.3
			c-3.1-3-8-3-11.1,0L318.9,238l-11.4,11.4L267.9,289c-1.5,1.5-3.5,2.3-5.5,2.3c-4.4,0-8-3.6-8-8c0-2.1,0.8-4.1,2.3-5.6l51-51
			c3.1-3.2,3-8.2-0.2-11.3c-3.1-3-8-3-11.1,0l-51,51c-1.5,1.5-3.5,2.3-5.5,2.3c-4.4-0.1-7.9-3.6-8-8c0-2.1,0.8-4.1,2.3-5.6l51-51
			c3.1-3.1,3.1-8.2,0-11.3s-8.2-3.1-11.3,0l-51.2,51c-1.5,1.5-3.4,2.3-5.5,2.3h0c-4.4,0-8-3.6-8-8c0-2.1,0.8-4.1,2.3-5.6l51-51
			c3.1-3.1,3.1-8.2,0-11.3c-3.1-3.1-8.2-3.1-11.3,0l-34.5,34.5l-5.2,5.2c-1.5,1.5-3.5,2.3-5.5,2.3c-4.4,0-8-3.6-8-8
			c0-2.1,0.8-4.1,2.3-5.6l89.7-89.7C301,97.5,315.6,90,331.5,87.5c1.7-0.3,3.2-1.1,4.4-2.2l5.7-5.7l62.2,62.2L392.4,153.2z
			 M426.3,141.8L341.4,57L375.4,23l84.9,84.9L426.3,141.8z"/>
	</g>
</g>
</svg>
