<?xml version="1.0" encoding="utf-8"?>
<!-- Generator: Adobe Illustrator 25.2.1, SVG Export Plug-In . SVG Version: 6.00 Build 0)  -->
<svg version="1.1" id="Camada_1" xmlns="http://www.w3.org/2000/svg" xmlns:xlink="http://www.w3.org/1999/xlink" x="0px" y="0px"
	 viewBox="0 0 512 512" style="enable-background:new 0 0 512 512;" xml:space="preserve">
<style type="text/css">
	.st0{fill:#00A1E0;}
</style>
<path class="st0" d="M511,68.4c-2.2-6.4-7.9-10.9-14.6-11.7l-36.7-4.2l-4.2-36.7c-0.8-6.8-5.3-12.4-11.7-14.6
	c-6.4-2.2-13.5-0.6-18.3,4.2l-72.6,72.6c-3.8,3.8-5.7,9.1-5.1,14.5l5.3,45.5l-16.2,16.2c-80-69.1-201.3-65.7-277.2,10.2
	c-79.4,79.4-79.4,208.7,0,288.1s208.7,79.4,288.1,0c75.9-75.9,79.3-197.2,10.2-277.1l16.2-16.2l45.5,5.3c5.4,0.6,10.7-1.2,14.5-5.1
	l72.6-72.6C511.6,81.8,513.2,74.8,511,68.4z M326.5,431.2c-67.7,67.7-178,67.7-245.7,0c-67.7-67.7-67.7-178,0-245.7
	c64.2-64.2,166.5-67.6,234.7-10.2L288,202.8c-53-42.4-130.8-39.1-179.9,10c-52.7,52.7-52.7,138.4,0,191.1s138.4,52.7,191.1,0
	c49.1-49.1,52.4-126.9,10-179.9l27.4-27.4C394.1,264.7,390.7,367,326.5,431.2z M195.7,316.3c5.9,5.9,15.4,5.9,21.2,0l19.9-19.9
	c4.5,12.5,1.7,27-8.2,36.9c-13.8,13.8-36.1,13.8-49.9,0c-13.8-13.8-13.8-36.1,0-49.9c10-10,24.5-12.7,36.9-8.2l-19.9,19.9
	C189.9,300.9,189.9,310.4,195.7,316.3z M238,252.8c-25.2-15.6-58.7-12.4-80.5,9.4c-25.5,25.5-25.5,66.9,0,92.3s66.9,25.5,92.3,0
	c21.8-21.8,24.9-55.3,9.4-80.5l28.6-28.6c30.8,41.1,27.5,99.9-9.9,137.3c-41,41-107.7,41-148.7,0s-41-107.7,0-148.7
	c37.4-37.4,96.2-40.7,137.3-9.9L238,252.8z M417.2,133.8l-35-4l-4-35l50.3-50.3l2.5,22c0.9,7.7,6.8,13.6,14.5,14.5l22,2.5
	L417.2,133.8z"/>
</svg>
