<?xml version="1.0" encoding="utf-8"?>
<!-- Generator: Adobe Illustrator 25.2.1, SVG Export Plug-In . SVG Version: 6.00 Build 0)  -->
<svg version="1.1" id="Capa_1" xmlns="http://www.w3.org/2000/svg" xmlns:xlink="http://www.w3.org/1999/xlink" x="0px" y="0px"
	 viewBox="0 0 480 480" style="enable-background:new 0 0 480 480;" xml:space="preserve">
<style type="text/css">
	.st0{fill:#00A1E0;}
</style>
<g>
	<g>
		<path class="st0" d="M376,4c-57.4,0-104,46.6-104,104v6.6l-31.5,86.7c-0.9,2.4-0.5,5.2,1,7.3c1.5,2.2,3.9,3.4,6.6,3.4h40v48
			c0,4.4,3.6,8,8,8h80v32c0,4.4,3.6,8,8,8h88c4.4,0,8-3.6,8-8V108C480,50.6,433.4,4,376,4z M464,292h-72v-32c0-4.4-3.6-8-8-8h-80
			v-48c0-4.4-3.6-8-8-8h-36.6l28.1-77.3c0.3-0.9,0.5-1.8,0.5-2.7v-8c0-48.6,39.4-88,88-88s88,39.4,88,88V292z"/>
	</g>
</g>
<g>
	<g>
		<path class="st0" d="M360.4,107.1c-11.8,11.8-30.9,11.8-42.7,0l-11.4,11.4c18.1,18,47.4,18,65.4,0L360.4,107.1z"/>
	</g>
</g>
<g>
	<g>
		<path class="st0" d="M239.5,369.3L208,282.6V276c0-57.4-46.6-104-104-104S0,218.6,0,276v192c0,4.4,3.6,8,8,8h88c4.4,0,8-3.6,8-8
			v-32h80c4.4,0,8-3.6,8-8v-48h40c2.6,0,5.1-1.3,6.6-3.4C240,374.4,240.4,371.7,239.5,369.3z M184,364c-4.4,0-8,3.6-8,8v48H96
			c-4.4,0-8,3.6-8,8v32H16V276c0-48.6,39.4-88,88-88s88,39.4,88,88v8c0,0.9,0.2,1.8,0.5,2.7l28.1,77.3H184z"/>
	</g>
</g>
<g>
	<g>
		<path class="st0" d="M162.3,275.1c-11.8,11.8-30.9,11.8-42.7,0l-11.4,11.4c18.1,18,47.4,18,65.4,0L162.3,275.1z"/>
	</g>
</g>
<g>
	<g>
		<path class="st0" d="M128,68c-22.1,0-40,17.9-40,40v20.7l-10.3-10.4l-11.4,11.4l24,24c3.1,3.1,8.2,3.2,11.3,0c0,0,0,0,0,0l24-24
			l-11.4-11.4L104,128.7V108c0-13.3,10.7-24,24-24h96V68H128z"/>
	</g>
</g>
<g>
	<g>
		<rect x="240" y="68" class="st0" width="16" height="16"/>
	</g>
</g>
<g>
	<g>
		<path class="st0" d="M437.7,326.3c-3.1-3.1-8.2-3.2-11.3,0c0,0,0,0,0,0l-24,24l11.4,11.4l10.3-10.4V388c0,13.3-10.7,24-24,24H240
			v16h160c22.1,0,40-17.9,40-40v-36.7l10.3,10.4l11.4-11.4L437.7,326.3z"/>
	</g>
</g>
<g>
	<g>
		<rect x="208" y="412" class="st0" width="16" height="16"/>
	</g>
</g>
</svg>
