<?xml version="1.0" encoding="utf-8"?>
<!-- Generator: Adobe Illustrator 25.2.1, SVG Export Plug-In . SVG Version: 6.00 Build 0)  -->
<svg version="1.1" id="Capa_1" xmlns="http://www.w3.org/2000/svg" xmlns:xlink="http://www.w3.org/1999/xlink" x="0px" y="0px"
	 viewBox="0 0 512 512" style="enable-background:new 0 0 512 512;" xml:space="preserve">
<style type="text/css">
	.st0{fill:#00A1E0;}
</style>
<g>
	<path class="st0" d="M308.3,89.8c0-28.8-23.4-52.2-52.2-52.2c-28.8,0-52.2,23.4-52.2,52.2s23.4,52.2,52.2,52.2
		C284.9,142,308.3,118.6,308.3,89.8z M218.9,89.8c0-20.5,16.7-37.2,37.2-37.2c20.5,0,37.2,16.7,37.2,37.2S276.6,127,256.1,127
		C235.6,127,218.9,110.3,218.9,89.8z"/>
	<path class="st0" d="M466.5,405.7v-130c0-15.3-12.4-27.7-27.7-27.7h-30.1c-3.6-25.8-25.8-45.8-52.6-45.8c-26,0-47.6,18.8-52.2,43.6
		h-40.3v-66.4h74.5c4.1,0,7.5-3.4,7.5-7.5V7.7c0-4.1-3.4-7.5-7.5-7.5h-164c-4.1,0-7.5,3.4-7.5,7.5v35.6c0,9.7,15,9.7,15,0V15.2h149
		v149.1h-149V79.3c0-9.7-15-9.7-15,0v92.6c0,4.1,3.4,7.5,7.5,7.5h74.5v66.4h-40.5c-4.6-24.8-26.2-43.6-52.2-43.6
		c-29.3,0-53.1,23.9-53.1,53.3c0,26.8,19.9,49.1,45.6,52.8v36.1H72c-14.6,0-26.5,11.6-26.5,25.9v35.5C19.8,409.4,0,431.7,0,458.5
		c0,29.4,23.8,53.3,53.1,53.3c29.3,0,53.1-23.9,53.1-53.3c0-26.9-19.9-49.1-45.7-52.8v-35.4c0-6,5.1-10.9,11.5-10.9h165
		c6.3,0,11.5,4.9,11.5,10.9v35.5c-25.7,3.7-45.6,25.9-45.6,52.8c0,29.4,23.8,53.3,53.1,53.3c29.3,0,53.1-23.9,53.1-53.3
		c0-26.8-19.9-49.1-45.6-52.8v-35.5c0-14.3-11.9-25.9-26.5-25.9h-73.6v-36.1c24-3.4,42.9-23,45.3-47.5h94.5
		c2.7,26.9,25.3,48,52.8,48c26.7,0,48.9-19.9,52.6-45.8h30.1c7,0,12.7,5.7,12.7,12.7v130c-25.8,3.6-45.7,25.9-45.7,52.8
		c0,29.4,23.8,53.3,53.1,53.3c29.3,0,53.1-23.9,53.1-53.3C512,431.7,492.2,409.5,466.5,405.7z M91.2,458.5
		c0,21.1-17.1,38.3-38.1,38.3c-21,0-38.1-17.2-38.1-38.3c0-21.1,17.1-38.3,38.1-38.3C74.1,420.2,91.2,437.4,91.2,458.5z
		 M294.1,458.5c0,21.1-17.1,38.3-38.1,38.3s-38.1-17.2-38.1-38.3c0-21.1,17.1-38.3,38.1-38.3C277,420.2,294.1,437.4,294.1,458.5z
		 M155.9,293.8c-21,0-38.1-17.2-38.1-38.3c0-21.1,17.1-38.3,38.1-38.3c21,0,38.1,17.2,38.1,38.3C194,276.6,176.9,293.8,155.9,293.8z
		 M356.1,293.8c-21,0-38.1-17.2-38.1-38.3c0-21.1,17.1-38.3,38.1-38.3c21,0,38.1,17.2,38.1,38.3
		C394.2,276.6,377.1,293.8,356.1,293.8z M458.9,496.8c-21,0-38.1-17.2-38.1-38.3c0-21.1,17.1-38.3,38.1-38.3
		c21,0,38.1,17.2,38.1,38.3C497,479.6,479.9,496.8,458.9,496.8z"/>
</g>
</svg>
